<?xml version="1.0" standalone="no"?>
<!DOCTYPE svg PUBLIC "-//W3C//DTD SVG 20010904//EN"
 "http://www.w3.org/TR/2001/REC-SVG-20010904/DTD/svg10.dtd">
<svg version="1.0" xmlns="http://www.w3.org/2000/svg"
 width="600.000000pt" height="600.000000pt" viewBox="0 0 600.000000 600.000000"
 preserveAspectRatio="xMidYMid meet">
<metadata>
Created by potrace 1.11, written by Peter Selinger 2001-2013
</metadata>
<g transform="translate(0.000000,600.000000) scale(0.100000,-0.100000)"
fill="#000000" stroke="none">
<path d="M0 3000 l0 -3000 3000 0 3000 0 0 3000 0 3000 -3000 0 -3000 0 0
-3000z m2315 2740 c48 -14 151 -81 147 -94 -2 -5 3 -13 12 -18 34 -19 68 -108
72 -185 1 -40 -1 -75 -7 -78 -5 -4 -7 -10 -4 -15 7 -11 -26 -80 -37 -80 -5 0
-7 -4 -4 -9 14 -22 -107 -143 -154 -153 -8 -2 -18 -6 -21 -11 -3 -4 -36 -16
-73 -27 -71 -20 -206 -21 -230 -1 -7 6 -16 8 -19 4 -4 -3 -7 -1 -7 6 0 7 -4 9
-10 6 -5 -3 -10 -1 -10 6 0 7 -3 10 -6 6 -10 -10 -76 28 -104 60 -51 57 -65
77 -50 69 12 -6 12 -5 0 6 -21 17 -38 65 -40 108 0 19 -1 40 -2 45 -1 12 10
78 18 111 4 13 10 24 16 24 5 0 6 5 3 10 -3 6 -1 10 5 10 6 0 9 4 5 9 -9 16
96 120 148 146 26 13 47 21 47 17 0 -4 4 -2 8 5 23 36 207 51 297 23z m-40
-734 c17 -4 39 -10 50 -13 11 -4 26 -8 34 -9 8 -2 18 -9 22 -16 5 -7 9 -9 9
-4 0 5 10 1 22 -10 14 -13 19 -14 14 -4 -4 8 1 5 12 -7 20 -23 39 -32 27 -13
-3 6 1 7 9 4 9 -3 16 -10 16 -15 0 -5 4 -8 9 -7 4 2 18 -8 30 -22 13 -14 19
-19 16 -12 -6 11 -3 12 13 3 26 -14 53 -51 46 -63 -3 -5 -2 -7 3 -6 24 7 111
-88 117 -129 1 -7 7 -18 14 -25 9 -9 9 -15 -1 -27 -9 -11 -9 -13 0 -8 17 11
45 -23 79 -95 16 -35 33 -65 38 -67 4 -2 2 -7 -5 -12 -11 -7 -10 -9 5 -9 12 0
16 -5 12 -16 -3 -8 -2 -13 3 -10 9 6 26 -22 23 -36 -1 -5 3 -8 9 -8 5 0 7 -4
4 -10 -3 -5 -2 -10 4 -10 6 0 13 -11 17 -25 3 -14 11 -25 16 -25 6 0 7 -7 4
-16 -3 -8 -2 -13 3 -10 4 3 19 -18 32 -47 13 -29 30 -58 36 -65 12 -12 15 -21
12 -38 0 -4 4 -10 9 -13 16 -10 121 -207 127 -238 2 -10 4 -19 5 -20 2 -2 3
-6 5 -10 1 -5 5 -16 10 -26 16 -37 -2 -139 -38 -207 l-34 -65 56 -45 c92 -75
111 -92 105 -102 -3 -5 -2 -8 3 -7 20 3 34 -2 28 -11 -3 -5 -3 -10 2 -10 7 0
27 -15 80 -60 7 -5 16 -10 21 -10 4 0 26 -17 48 -39 100 -96 268 -180 362
-181 24 0 41 -4 38 -8 -6 -10 158 5 197 18 15 5 34 7 42 4 8 -4 15 -2 15 4 0
12 37 15 120 8 62 -5 88 -14 100 -37 6 -10 16 -19 23 -19 7 0 23 -11 35 -25
53 -55 234 -271 240 -284 3 -8 26 -35 51 -61 64 -64 156 -170 157 -181 1 -5 2
-13 3 -19 0 -5 7 -9 14 -7 6 1 11 -4 10 -10 -2 -7 1 -13 5 -13 5 0 17 -7 28
-16 18 -14 18 -15 -6 -4 -22 9 -22 9 -6 -2 40 -26 96 -81 96 -93 0 -7 11 -21
25 -31 14 -10 25 -25 25 -32 0 -7 7 -15 15 -18 8 -4 15 -17 15 -30 0 -13 5
-24 11 -24 5 0 8 -4 5 -9 -4 -5 -1 -11 5 -13 12 -4 22 -158 11 -158 -4 0 -8
-14 -8 -31 -2 -35 -53 -112 -79 -117 -16 -4 -81 58 -160 153 -16 20 -50 57
-75 83 -25 26 -70 76 -100 111 -30 35 -70 80 -88 99 -19 20 -50 55 -69 79 -25
31 -39 40 -44 32 -4 -7 -4 -20 0 -28 5 -9 6 -22 4 -28 -3 -7 1 -13 7 -13 7 0
10 -6 7 -14 -3 -7 -1 -18 4 -23 5 -5 11 -25 13 -44 2 -19 6 -41 9 -49 10 -30
30 -105 32 -120 1 -8 5 -22 8 -30 6 -16 42 -165 52 -218 4 -17 10 -32 14 -32
4 0 8 -8 8 -17 7 -68 11 -91 16 -99 3 -5 8 -30 12 -56 6 -42 5 -48 -16 -61
-13 -8 -59 -20 -101 -27 -59 -10 -78 -17 -79 -29 -3 -36 -1 -67 5 -82 4 -9 6
-20 4 -25 -1 -5 4 -20 11 -34 8 -13 15 -47 16 -75 2 -27 8 -63 14 -79 7 -16
13 -53 14 -82 1 -28 5 -50 10 -47 4 2 7 -3 7 -11 0 -9 -4 -16 -9 -16 -4 0 -6
-11 -3 -25 2 -14 9 -25 14 -25 6 0 7 -7 4 -16 -4 -10 -2 -13 6 -8 8 5 9 -2 5
-24 -4 -20 -2 -32 4 -32 7 0 9 -12 7 -29 -2 -17 -1 -28 4 -25 4 3 8 0 8 -5 0
-6 -5 -11 -12 -11 -6 0 -4 -8 6 -19 18 -19 36 -119 29 -161 -1 -11 1 -20 6
-20 6 0 10 -8 10 -17 0 -10 3 -52 6 -93 7 -87 -9 -129 -64 -167 -38 -26 -106
-39 -125 -24 -7 6 -15 8 -18 5 -10 -10 -68 26 -68 42 0 8 -4 13 -9 10 -9 -6
-26 22 -23 37 1 4 -3 7 -10 7 -6 0 -8 3 -5 6 3 4 1 16 -6 28 -6 11 -17 44 -23
71 -7 28 -19 76 -28 108 -10 32 -14 68 -11 80 5 18 4 19 -5 7 -9 -12 -11 -10
-7 12 2 15 0 29 -4 30 -5 2 -10 15 -11 30 -1 16 -6 28 -11 28 -5 0 -7 7 -3 15
3 9 -2 43 -10 78 -19 70 -39 190 -47 270 -1 9 -5 17 -10 17 -4 0 -6 14 -3 30
2 17 1 28 -4 25 -4 -3 -10 10 -13 28 -3 17 -12 57 -20 87 l-14 55 -66 0 c-36
0 -68 -3 -71 -6 -3 -3 -9 -40 -12 -82 -5 -52 -10 -74 -18 -70 -6 4 -5 -1 3
-10 10 -13 12 -37 6 -104 -3 -49 -8 -119 -10 -158 -4 -67 -10 -158 -20 -275
-3 -30 -5 -62 -6 -70 0 -8 -3 -22 -6 -30 -3 -8 -7 -64 -10 -125 -2 -60 -8
-111 -12 -113 -5 -1 -6 -18 -4 -37 2 -18 -2 -39 -9 -47 -7 -7 -14 -20 -16 -28
-9 -37 -70 -75 -108 -67 -14 2 -24 -1 -24 -7 0 -6 -4 -5 -9 3 -5 7 -14 11 -20
7 -24 -15 -122 66 -114 95 2 5 -1 9 -6 9 -11 0 -24 97 -15 111 4 6 6 66 6 132
-1 84 3 124 11 129 9 6 9 8 -1 8 -7 0 -10 5 -6 11 3 6 7 67 7 135 0 75 4 124
10 124 5 0 4 7 -3 15 -7 8 -10 25 -7 37 4 13 7 59 7 103 2 97 9 147 21 139 5
-3 9 -1 9 5 0 5 -4 13 -10 16 -5 3 -10 22 -10 41 0 19 3 33 8 31 4 -3 7 50 7
116 1 176 9 346 17 341 4 -2 5 17 3 43 -2 27 0 129 6 228 6 99 11 252 11 340
l0 159 -34 29 c-18 15 -37 32 -43 37 -5 6 -25 25 -44 43 -19 17 -70 69 -114
115 -44 45 -86 82 -93 82 -7 0 -15 8 -18 18 -3 9 -69 81 -146 160 -77 79 -140
147 -140 152 0 6 -7 10 -16 10 -8 0 -12 5 -9 10 3 6 0 10 -9 10 -17 0 -80 70
-103 115 -18 34 -28 151 -13 160 5 3 7 12 4 20 -3 8 4 35 16 59 l21 45 -72
138 c-144 276 -234 451 -294 567 -33 66 -66 121 -73 124 -17 5 -21 -27 -26
-223 -4 -147 -11 -369 -15 -470 -4 -79 1 -92 49 -152 27 -33 46 -64 42 -68 -4
-4 -2 -5 3 -3 15 4 75 -53 68 -65 -3 -6 -1 -7 5 -3 5 3 12 3 14 -2 1 -4 16
-17 32 -30 20 -15 24 -22 12 -22 -21 0 -20 -14 2 -31 16 -13 16 -12 3 6 -7 11
-2 7 13 -8 14 -16 23 -33 20 -39 -4 -6 -2 -8 3 -5 12 8 36 -17 26 -26 -3 -4 1
-9 10 -13 44 -17 292 -476 270 -498 -4 -3 -2 -6 4 -6 10 0 19 -20 28 -59 2 -8
7 -26 10 -40 4 -14 7 -28 7 -31 0 -3 4 -11 10 -18 6 -7 8 -15 5 -19 -4 -3 -3
-11 2 -17 12 -14 51 -179 51 -214 0 -14 5 -41 12 -59 9 -24 9 -36 1 -44 -9 -9
-129 -17 -296 -19 -4 0 -6 -24 -5 -52 3 -69 -13 -1044 -17 -1083 -2 -16 -5
-59 -6 -95 -1 -36 -7 -71 -13 -79 -8 -12 -8 -13 2 -7 10 6 12 -19 8 -132 -2
-78 -10 -150 -16 -161 -8 -16 -8 -21 1 -21 7 0 9 -10 6 -28 -4 -15 -8 -79 -11
-144 -3 -88 -9 -127 -25 -163 -13 -30 -25 -44 -32 -39 -7 4 -9 3 -6 -3 8 -13
-30 -49 -66 -62 -16 -6 -47 -11 -69 -11 -45 0 -132 36 -122 51 3 5 1 9 -5 9
-12 0 -42 42 -45 62 -1 7 -5 19 -10 27 -11 17 5 589 19 676 3 17 7 73 9 125 7
153 15 319 21 410 9 135 13 280 17 503 l3 207 -90 0 c-59 0 -96 4 -104 12 -11
10 -13 10 -7 1 6 -10 -15 -13 -91 -13 -54 -1 -178 -3 -277 -6 -148 -5 -177 -4
-170 7 6 11 5 12 -7 3 -8 -6 -45 -12 -83 -12 -37 -1 -69 -2 -71 -4 -2 -3 -14
-163 -15 -201 0 -10 -4 -16 -9 -13 -4 3 -6 -5 -4 -17 3 -13 -1 -72 -7 -132 -6
-61 -14 -137 -16 -170 -3 -33 -9 -105 -15 -160 -5 -55 -11 -136 -13 -180 -5
-120 -16 -265 -23 -305 -9 -54 -11 -70 -14 -149 -3 -100 -17 -170 -41 -209
-27 -43 -89 -85 -113 -76 -13 5 -16 4 -11 -5 12 -19 -89 -11 -124 10 -15 10
-41 38 -55 64 -26 44 -27 50 -21 143 4 53 7 104 7 112 0 8 5 71 11 140 5 69
10 142 9 163 0 20 3 37 7 37 4 0 6 18 4 40 -3 24 1 47 9 57 10 12 10 15 2 9
-13 -7 -18 5 -7 17 6 6 15 155 14 245 0 28 3 52 7 52 5 0 8 17 9 38 3 116 23
416 30 460 l5 32 -83 2 c-180 4 -198 8 -198 42 0 12 3 26 7 29 3 4 8 19 9 34
2 14 8 29 15 33 6 4 8 13 5 19 -4 6 -3 11 3 11 6 0 8 7 5 15 -4 8 -1 15 6 15
6 0 9 4 6 9 -7 11 33 131 44 131 5 0 8 8 8 18 -1 24 20 72 31 72 5 0 7 8 4 19
-2 10 2 25 11 33 8 9 18 27 22 42 3 14 10 26 16 26 5 0 6 5 3 10 -3 6 -1 10 6
10 7 0 9 3 6 7 -4 3 1 12 11 20 9 8 11 12 5 8 -9 -4 -11 -1 -7 9 3 9 10 13 15
10 5 -3 6 1 4 8 -3 8 3 23 14 35 11 11 17 24 14 27 -4 3 -1 6 6 6 7 0 10 4 7
9 -4 5 -1 11 6 13 6 2 12 12 14 22 4 25 66 126 75 121 4 -3 6 3 5 13 0 9 5 16
12 14 8 -1 11 2 8 7 -4 5 1 16 9 24 8 9 15 20 15 25 0 6 18 29 40 53 21 23 37
46 34 50 -2 4 6 16 19 26 13 10 33 32 46 49 l23 32 -37 68 c-64 117 -76 163
-82 327 -3 84 -2 147 3 147 5 0 10 19 10 43 4 108 7 138 19 154 9 12 10 23 3
36 -12 23 -3 51 14 41 9 -6 9 -3 -1 9 -12 16 -12 47 2 102 3 11 6 29 6 40 1
17 3 18 12 5 9 -12 10 -10 6 8 -7 28 11 82 26 82 6 0 7 3 4 6 -9 9 34 84 44
78 5 -3 6 3 2 12 -4 12 -3 15 5 10 8 -5 12 0 12 13 0 26 104 136 119 127 7 -4
9 -1 5 8 -3 9 2 17 15 21 12 3 21 11 21 17 0 14 31 37 50 38 9 0 23 9 33 20 9
11 24 20 32 20 8 0 15 5 15 10 0 6 8 10 18 10 10 0 22 4 28 9 5 5 18 11 29 13
11 1 23 7 26 12 4 4 22 9 40 11 19 2 34 4 34 5 0 1 12 3 28 4 15 2 29 5 31 7
7 7 209 3 241 -5z m1780 -1158 c42 -21 88 -55 114 -83 46 -50 102 -159 97
-191 -2 -10 1 -29 7 -41 13 -30 -7 -133 -39 -196 -53 -106 -158 -181 -274
-195 -79 -9 -139 -6 -190 9 -45 14 -147 80 -182 117 -36 39 -71 108 -62 123 4
8 3 9 -4 5 -7 -4 -13 -4 -13 1 -1 4 -4 19 -6 33 -18 102 -1 217 38 259 10 10
16 21 13 23 -7 8 77 98 91 98 7 0 18 7 25 15 7 8 16 12 21 9 5 -3 9 -1 9 4 0
10 67 37 110 46 14 2 59 3 100 2 63 -2 86 -8 145 -38z"/>
<path d="M1720 4515 c-7 -9 -13 -32 -12 -52 1 -20 -3 -42 -9 -50 -7 -7 -7 -13
-2 -13 10 0 9 -43 -2 -195 -3 -44 -5 -95 -5 -113 0 -18 -2 -37 -5 -43 -10 -16
-19 -338 -10 -347 2 -2 12 1 22 7 10 6 14 11 8 11 -5 0 -4 4 4 9 8 5 16 17 17
27 3 21 24 285 29 369 2 33 4 60 5 60 0 0 4 63 7 140 3 77 6 154 7 170 1 23
-4 31 -20 33 -11 2 -27 -4 -34 -13z"/>
<path d="M1400 1200 c0 -5 5 -10 11 -10 5 0 7 5 4 10 -3 6 -8 10 -11 10 -2 0
-4 -4 -4 -10z"/>
</g>
</svg>
